# xmcd
#
# Track frame offsets:
#	150
#	9321
#	25497
#	41295
#	55143
#	63380
#	76663
#	93118
#	105811
#	115632
#	129065
#	139798
#	152869
#	166523
#	177485
#	191105
#	202035
#	215641
#	226148
#	239147
#
# Disc length: 3362 seconds
#
# Revision: 2
# Processed by: cddbd v1.5.1PL0 Copyright (c) Steve Scherf et al.
# Submitted via: audiograbber 1.83.01
#
DISCID=fa0d2014
DTITLE=Various Artist - Superhits Of Country [CD9)
DYEAR=1900
DGENRE=Country
TTITLE0=Dottie West - Blue Fiddle Waltz
TTITLE1=Nancy Peppers  - Only In My Dreams
TTITLE2=Patsy Cline - LovesickBlues
TTITLE3=Mel McDaniel - Baby´s Got Her Blue Jeans On
TTITLE4=Guy Mitchell - Singing The Blues
TTITLE5=Porter Wagoner - Green Green Grass Of Home
TTITLE6=Jarry Wallace - Primrose Lane
TTITLE7=Tammy Wynette And George Jones - Golden Ring
TTITLE8=Lynn Anderson - Rose Garden
TTITLE9=Billie Jo Spears - Misty Blue
TTITLE10=Becky Hobbs - Mama´s Green Eyes
TTITLE11=Boxcar Willie - Blue Moon Of Kentacky
TTITLE12=The Gatlin Brothers - All The Gold In California
TTITLE13=Crystal Gayle - When I Dream
TTITLE14=Mickey Gilley - Room Full Of Oses
TTITLE15=Slim Whitman - Have You Ever Been Lonely,?
TTITLE16=Johnny Whitman - Slide Off Of Your Satin Sheets
TTITLE17=Ray Stevens - Everything Is Beautiful
TTITLE18=Tammy Wynette And David Houston - My Exlusive
TTITLE19=The Kendalls - Blue Blue Day
EXTD=
EXTT0=
EXTT1=
EXTT2=
EXTT3=
EXTT4=
EXTT5=
EXTT6=
EXTT7=
EXTT8=
EXTT9=
EXTT10=
EXTT11=
EXTT12=
EXTT13=
EXTT14=
EXTT15=
EXTT16=
EXTT17=
EXTT18=
EXTT19=
PLAYORDER=
